<svg xmlns="http://www.w3.org/2000/svg" viewBox="0 0 3639.24 1574.76"><defs><style>.Dan_logo{fill:#e0e0e0;}</style></defs><title>DaN&amp;apos;s_logo</title><g id="Слой_2" data-name="Слой 2"><path class="Dan_logo" d="M1979.87,2179.78a219,219,0,0,1-15-38.19,137.79,137.79,0,0,1-5.46-38.18v-13.64l1.29-53.49c-19.12,24.58-24,29.14-28.09,39.41-14.94,37.66-8.59,52.68-39,83.9-21.11-21.44-26.54-41.75-33.95-74.53-2.73-21.86-15.22-40.59-42.15-48.39l.11,219.47a36.77,36.77,0,0,1-4.78,12.28A35.44,35.44,0,0,1,1804,2278a30,30,0,0,1-12.28,5.46,76.63,76.63,0,0,1-15,1.36h-9.54c-3.65-.89-7.06-1.81-10.23-2.73A30,30,0,0,1,1748,2278a26.86,26.86,0,0,1-9.55-8.18,19.85,19.85,0,0,1-4.09-12.27V1542.92a17.23,17.23,0,0,1,4.09-11.59,59.8,59.8,0,0,1,9.55-8.86,31.36,31.36,0,0,1,8.86-4.09,37.31,37.31,0,0,1,10.23-1.37,11.22,11.22,0,0,1,4.77-1.36h10.23a22.72,22.72,0,0,1,5.45.68,28.73,28.73,0,0,1,5.46,2.05c1.81.91,3.62,1.83,5.45,2.72s3.63,1.84,5.46,2.73a41.56,41.56,0,0,1,8.86,8.87,30.15,30.15,0,0,1,4.78,11.59l.13,270.66c48.18-7,100.7-15.56,141.65-42.29l0-37.45v-13.64a159.78,159.78,0,0,1,1.36-21.14,185.55,185.55,0,0,1,4.1-21.14q2.72-10.89,6.13-22.5a189.69,189.69,0,0,1,8.87-23.86q5.43-10.9,10.91-22.5a128.94,128.94,0,0,1,13.63-22.5q4.1-5.45,7.5-10.91c2.26-3.63,4.78-7.27,7.5-10.91s5.22-7.27,7.5-10.91,4.78-7.27,7.5-10.91a87.52,87.52,0,0,1-27.27-9.55,132.83,132.83,0,0,1-23.18-16.36,138,138,0,0,1-19.78-21.14,87.79,87.79,0,0,1-11.59-21.14,6.22,6.22,0,0,0-.68-2.73,5.77,5.77,0,0,1-.68-2.72,1.21,1.21,0,0,1-1.37-1.37v-18.41a13.44,13.44,0,0,1,1.37-6.13,12.17,12.17,0,0,1,1.36-5.46,21.2,21.2,0,0,1,4.09-5.45c-5.45.91-10.69,1.59-15.68,2s-9.78.68-14.32.68a38.52,38.52,0,0,0-7.5.69,31.25,31.25,0,0,1-6.14.68h-13.63q-35.48,0-61.37-6.14t-43.64-18.41a206.18,206.18,0,0,1-34.09-30,351.89,351.89,0,0,1-31.37-39.55,121.27,121.27,0,0,1-10.22-15q-4.8-8.17-10.23-16.36a162.15,162.15,0,0,1-10.23-17.73q-4.8-9.52-10.23-19.09a273.53,273.53,0,0,0-16.36,29.32,233.6,233.6,0,0,0-10.91,26.59q-2.74,13.65-5.46,25.23t-5.45,22.5a328,328,0,0,1-12.27,35.45,154.9,154.9,0,0,1-17.73,31.37q-9.55,13.65-34.78,26.59t-63.41,25.23a31.25,31.25,0,0,0,8.18,5.46,99,99,0,0,1,8.87,6.81c3.17,2.73,6.58,5.93,10.22,9.55a32.71,32.71,0,0,1,4.78,6.14c1.36,2.28,2.94,4.77,4.77,7.5a76,76,0,0,1,4.77,8.18,73.78,73.78,0,0,0,4.78,8.18q2.71,9.55,5.45,19.78a87.47,87.47,0,0,1,2.73,22.5v615a101.76,101.76,0,0,1-2.73,24.55q-2.74,10.92-5.45,19.09a73.78,73.78,0,0,0-4.78,8.18,76,76,0,0,1-4.77,8.18c-1.83,2.73-3.41,5.25-4.77,7.5a31.47,31.47,0,0,1-4.78,6.14q-5.46,5.46-10.22,9.55a97.44,97.44,0,0,1-8.87,6.82,32,32,0,0,0-8.18,5.45q38.16,9.55,63.41,22.5t34.78,26.59a155.17,155.17,0,0,1,17.73,31.37q6.8,16.37,12.27,34.09,2.72,10.91,5.45,22.5t5.46,25.23a233.6,233.6,0,0,0,10.91,26.59A273.53,273.53,0,0,0,1688,2520.7q5.43-9.55,10.23-18.41t10.23-17q5.43-8.19,10.23-15.69a157.33,157.33,0,0,1,10.22-14.31,408.35,408.35,0,0,1,31.37-40.23,192.3,192.3,0,0,1,34.09-30.69q17.71-12.27,45-18.41t62.74-6.13h24.54c4.54,0,9.31.21,14.32.68s10.23,1.13,15.68,2a21.2,21.2,0,0,1-4.09-5.45,12.17,12.17,0,0,1-1.36-5.46c-.92-.91-1.37-2.51-1.37-4.77v-18.41a1.2,1.2,0,0,1,1.37-1.36,5.78,5.78,0,0,1,.68-2.73,6.18,6.18,0,0,0,.68-2.73,100,100,0,0,1,31.37-39.55,89.53,89.53,0,0,1,23.18-17,101.74,101.74,0,0,1,27.27-8.87,465.21,465.21,0,0,1-30-38.86Q1990.76,2197.53,1979.87,2179.78Z" transform="translate(-180.38 -1275.64)"/><path class="Dan_logo" d="M2449.39,1992.62c-2.73-3.62-5.46-7.27-8.19-10.91a52.15,52.15,0,0,1-8.86-8.18,49,49,0,0,1-6.14-9.55,4,4,0,0,0-1.36-2.73,3.83,3.83,0,0,1-1.36-2.72c-.92-2.73-1.84-5.23-2.73-7.51s-1.83-4.3-2.73-6.13c0-.9-.23-1.37-.68-1.37s-.68-.44-.68-1.36a9.91,9.91,0,0,1-2-2.73,5.77,5.77,0,0,1-.68-2.72v-12.28a66.91,66.91,0,0,1,2.05-16.36,114.6,114.6,0,0,1,4.77-15,86,86,0,0,1,7.5-14.32,161.3,161.3,0,0,1,10.23-14.32,91.19,91.19,0,0,1,6.13-8.18c2.26-2.73,4.78-5.91,7.5-9.55l2.73-2.73,2.73-2.72c1.81-2.73,3.62-5.22,5.45-7.5a76.74,76.74,0,0,1,5.46-6.14q-77.73-6.81-133-23.87t-88-45.68a496.86,496.86,0,0,1-62-62,579.56,579.56,0,0,1-51.14-71.59c-.92-.9-1.6-1.58-2-2.05a2.73,2.73,0,0,1-.68-2c-.91-.9-1.6-1.58-2-2s-1.15-1.13-2-2a25.32,25.32,0,0,1-2-5.45,29,29,0,0,0-2.05-5.46,10.2,10.2,0,0,0-4.09,3.41,42.81,42.81,0,0,0-2.73,4.78,21.52,21.52,0,0,0-2.73,3.41,8.39,8.39,0,0,0-1.36,4.77,852.76,852.76,0,0,1-52.5,73,456.39,456.39,0,0,1-62.05,63.41q-32.73,28.64-88,45.68t-130.23,23.87a10.88,10.88,0,0,1,2,2.73,5.89,5.89,0,0,1,.68,2.72,61.84,61.84,0,0,0,3.41,8.19,17.6,17.6,0,0,0,6.14,6.81q4.1,5.48,8.18,10.23a97.44,97.44,0,0,1,6.82,8.87,32.59,32.59,0,0,1,4.77,6.13,30.72,30.72,0,0,0,4.78,6.14,36.43,36.43,0,0,0,3.4,7.5c1.37,2.28,2.5,4.33,3.41,6.14a10.84,10.84,0,0,0,.69,3.41,8.34,8.34,0,0,0,2,3.41q1.35,5.46,2.73,10.91a51.71,51.71,0,0,1,1.36,12.27v4.09a10.68,10.68,0,0,1-1.36,4.09,6.19,6.19,0,0,1-.68,2.73,5.89,5.89,0,0,0-.68,2.73v4.09c-.92.91-1.37,1.6-1.37,2v2.05c-.91,1.83-1.83,3.64-2.73,5.45a10.63,10.63,0,0,0-1.36,4.09,46.71,46.71,0,0,1-2.73,4.78,41.76,41.76,0,0,0-2.72,4.77,8.5,8.5,0,0,0-2.05,3.41,8.82,8.82,0,0,1-2,3.41,52.52,52.52,0,0,0-4.77,5.45,36.94,36.94,0,0,0-3.41,5.46c-3.64,3.64-7,7.29-10.23,10.91s-6.13,6.82-8.86,9.54a17.26,17.26,0,0,1-4.09,6.82,20.87,20.87,0,0,0,3.41,2.73,25.87,25.87,0,0,0,6.13,2.73,11.38,11.38,0,0,1,3.41.68,44.32,44.32,0,0,1,4.78,2H1803l16.36,8.19,13.64,6.82a56.52,56.52,0,0,1,10.91,8.18,54.73,54.73,0,0,1,6.82,8.18q5.43,8.19,10.23,16.36a50,50,0,0,1,6.13,19.1c.9,2.72,1.81,5.92,2.73,9.54s1.81,7.29,2.73,10.91a12,12,0,0,0,1.36,5.46,12.26,12.26,0,0,1,1.36,5.45,106.63,106.63,0,0,0,7.51,17.05q4.76,8.88,11.59,19.77,6.81-10.89,11.59-19.77a110.24,110.24,0,0,0,7.5-17.05q2.71-8.17,4.77-16.36c1.37-5.46,2.49-10.44,3.41-15a72.35,72.35,0,0,1,7.5-19.1q4.77-8.17,10.23-16.36a53.55,53.55,0,0,1,6.82-8.18,87.71,87.71,0,0,1,9.54-8.18,136.33,136.33,0,0,0,14.32-6.82q7.49-4.1,17-8.19a21.76,21.76,0,0,0,5.45-.68,26,26,0,0,0,5.46-2,11.19,11.19,0,0,0,3.41-.68,8.5,8.5,0,0,0,3.41-2,10.89,10.89,0,0,0,3.41-.68,8.5,8.5,0,0,0,3.41-2l-8.19-8.18c-1.83-1.81-3.41-3.41-4.77-4.77a18.14,18.14,0,0,0-4.77-3.41,48,48,0,0,1-4.78-5.46,53.73,53.73,0,0,0-4.77-5.45,46.77,46.77,0,0,0-2.73-4.77,23.34,23.34,0,0,0-2.72-3.41,51.12,51.12,0,0,0-2.73-4.78,40.07,40.07,0,0,1-2.73-4.77,41.46,41.46,0,0,1-6.82-8.86,39.31,39.31,0,0,1-4.09-10.23,34.94,34.94,0,0,1-2-4.77,10.84,10.84,0,0,1-.69-3.41v-24.55a30.65,30.65,0,0,1,.69-6.14,60.86,60.86,0,0,1,2-7.5,22.21,22.21,0,0,1,1.37-6.82c.89-2.72,1.81-5.9,2.72-9.54a40.42,40.42,0,0,0,2-4.78,11.27,11.27,0,0,0,.68-3.4,25.92,25.92,0,0,1,10.91-21.82,112.61,112.61,0,0,1,10.91-4.78,30.88,30.88,0,0,1,10.91-2,34.86,34.86,0,0,1,12.27,2,115.93,115.93,0,0,1,10.91,4.78,30.17,30.17,0,0,1,8.19,8.86,39.28,39.28,0,0,1,4.09,11.59v664.13a82.53,82.53,0,0,1-3.41,24.55,55.35,55.35,0,0,1-10.23,19.09,77.27,77.27,0,0,1-12.27,16.36q-6.84,6.84-15,13.64-9.57,5.46-16.37,9.54a95.35,95.35,0,0,1-13.64,6.82c-4.56,1.84-8.65,3.65-12.27,5.46q38.16,9.56,63.41,22.5t34.78,26.59a184.11,184.11,0,0,1,18.41,31.37,251.87,251.87,0,0,1,12.95,35.45q2.72,10.91,5.46,22.5t6.82,23.87a108.68,108.68,0,0,0,10.22,26.59q7.49,14.32,17.05,29.32,8.19-15,15-29.32a127.8,127.8,0,0,0,9.55-26.59q4.08-12.27,8.18-23.87a107.81,107.81,0,0,0,5.45-22.5,148.16,148.16,0,0,1,12.28-35.45,344.43,344.43,0,0,1,17.73-31.37q10.89-13.65,36.13-26.59t63.42-22.5q-6.84-2.72-13.64-5.46a44.26,44.26,0,0,0-4.77-2,34.68,34.68,0,0,1-4.78-2,33.38,33.38,0,0,1-8.86-4.77c-3.2-2.26-6.61-4.77-10.23-7.5-1.83-1.81-3.41-3.41-4.77-4.77a18.3,18.3,0,0,0-4.77-3.41q-5.48-5.44-10.23-10.91c-3.2-3.63-6.14-7.27-8.87-10.91a40.5,40.5,0,0,1-10.91-19.09,100.8,100.8,0,0,1-2.72-24.55V1872.61q0-6.81,2-10.91c1.37-2.73,3.86-5.45,7.5-8.18a54.73,54.73,0,0,1,8.87-4.77,66.21,66.21,0,0,1,10.22-3.41h5.46a34.86,34.86,0,0,1,12.27,2,115.93,115.93,0,0,1,10.91,4.78,27.41,27.41,0,0,1,8.18,9.54,27.13,27.13,0,0,1,2.73,12.28q2.72,8.18,4.09,14.31a99.5,99.5,0,0,0,2.73,10.23,37.06,37.06,0,0,0,.68,7.5,23.57,23.57,0,0,0,2.05,6.14v19.09A3.94,3.94,0,0,0,2283,1934v6.82c-.91.91-1.36,1.6-1.36,2v2.05c-.92,1.83-1.83,3.64-2.73,5.45a15.65,15.65,0,0,1-2.72,4.09,48.66,48.66,0,0,1-2.73,4.78,41.73,41.73,0,0,0-2.73,4.77,92.74,92.74,0,0,1-5.45,9.55c-1.84,2.72-3.65,5.45-5.46,8.18l-10.23,10.23-8.86,8.86a34.66,34.66,0,0,0-8.18,8.18c1.81.92,3.85,1.84,6.13,2.73s4.78,1.83,7.5,2.73a6.15,6.15,0,0,1,2.73.68,5.81,5.81,0,0,0,2.73.68,3.83,3.83,0,0,0,2.73,1.36h2.72q9.53,4.1,17.05,8.19t13,6.82a56.83,56.83,0,0,1,10.91,8.18,55.25,55.25,0,0,1,6.81,8.18q5.45,8.19,10.23,16.36a73.39,73.39,0,0,1,7.5,19.1c.9,2.72,1.81,5.92,2.73,9.54s1.81,7.29,2.73,10.91a11.92,11.92,0,0,0,1.36,5.46,12.26,12.26,0,0,1,1.36,5.45,167.19,167.19,0,0,0,6.82,17.05,111.54,111.54,0,0,0,12.28,19.77q6.79-10.89,11.59-19.77a110.24,110.24,0,0,0,7.5-17.05,12.27,12.27,0,0,0,1.36-5.45,12.06,12.06,0,0,1,1.37-5.46c.89-3.62,1.81-7.26,2.72-10.91s1.81-6.82,2.73-9.54a133.71,133.71,0,0,1,6.14-19.1,95.62,95.62,0,0,1,8.86-16.36,40.39,40.39,0,0,1,7.5-8.18q4.77-4.1,10.23-8.18a137.28,137.28,0,0,0,14.32-6.82q7.47-4.1,17-8.19h4.1a8.78,8.78,0,0,1,3.41-2,15.16,15.16,0,0,1,4.77-.68q2.71-1.35,6.13-2.73c2.26-.89,4.78-1.81,7.51-2.73a53.6,53.6,0,0,1-8.19-6.82A46.88,46.88,0,0,1,2449.39,1992.62Z" transform="translate(-180.38 -1275.64)"/><path class="Dan_logo" d="M1426.13,2040a567.35,567.35,0,0,1,136.09-369.18c.91-12.23-1.15-22.83.14-35-48.31,51.38-85.14,108.53-112.59,173.43a592.7,592.7,0,0,0,492.61,821.22c14.53-3.69,31.31-12.34,43.7-21C1678.64,2601.65,1426.13,2349.34,1426.13,2040Z" transform="translate(-180.38 -1275.64)"/><path class="Dan_logo" d="M2542.26,1809.27A592.34,592.34,0,0,0,1996,1447.2q-18.64,0-37.1,1.13c-1.21,7.59-2.35,14.83-1.66,23.13q19.21-1.29,38.76-1.31c314.23,0,569.88,255.65,569.88,569.89,0,234-141.79,435.54-344,523.18,2.87,7.7,12.51,16.2,16.84,17.82a593.45,593.45,0,0,0,303.49-771.77Z" transform="translate(-180.38 -1275.64)"/><path class="Dan_logo" d="M180.38,2058.35c399.92,11.35,805,22.69,1204.89,34,2-145.88,28.67-306.81,127.51-419.41-156.49,101.84-209.49,209.7-506.12,275C590.93,2039.62,349.44,2034,180.38,2058.35Z" transform="translate(-180.38 -1275.64)"/><path class="Dan_logo" d="M3819.62,2018.38c-399.92-11.35-805-22.7-1204.89-34-2,145.88-28.67,306.8-127.51,419.41,156.49-101.84,209.49-209.71,506.12-275.05C3409.07,2037.11,3650.56,2042.74,3819.62,2018.38Z" transform="translate(-180.38 -1275.64)"/><path class="Dan_logo" d="M568.29,2120.41c268-7.6,549.53,20.36,817.51,12.76,18.07,98,51.47,195.12,117.7,270.58-104.86-68.24-182.76-130.06-381.53-173.85C843.39,2168.53,681.57,2136.74,568.29,2120.41Z" transform="translate(-180.38 -1275.64)"/><path class="Dan_logo" d="M3422.44,1956.32c-268,7.6-549.53-20.36-817.51-12.76-18.08-98-51.48-195.13-117.71-270.58,104.87,68.24,182.76,130.06,381.53,173.85C3147.33,1908.2,3309.15,1940,3422.44,1956.32Z" transform="translate(-180.38 -1275.64)"/></g></svg>