<svg id="Слой_3" data-name="Слой 3" xmlns="http://www.w3.org/2000/svg" viewBox="0 0 336.77 336.77"><defs><style>.cls-1{fill:#2992ac;}.cls-2{fill:#186d7b;}.cls-3{fill:#fff;}</style></defs><title>Phone_ico</title><circle class="cls-1" cx="168.39" cy="168.39" r="168.39"/><path class="cls-2" d="M414.62,227.43c-6.66-5-42.05-20.93-42.95-21.75-3.35-.35-2.17-10.93-4.91-12.38-4.6-2.43-8.49-7.5-10.3-12.48-.52-.29-1-.56-1.57-.86-4.69-2.66-9.18-5.76-13.62-8.83-9.12-6.29-18.18-12.28-28.2-17.06L313,154l-.51-.18c-1.06-.37-2.11-.79-3.18-1.16-2.13-.74-4.28-1.41-6.45-2a126.49,126.49,0,0,0-13.19-3,12.93,12.93,0,0,1-1.4-.35c-.83-.1-1.77-.12-2.43-.19-2.25-.23-4.51-.4-6.77-.53-4.51-.26-9-.31-13.54-.2-9,.23-17.78,1.38-26.65,2.47l-3.1.39q-2.62.38-5.25.79c-4.13.68-8.25,1.48-12.32,2.51-2.21.56-4.42,1.18-6.59,1.9l-1.51.53c-3.22,2.47-7.72,4.21-11.14,6.41-4.27,2.76-8.4,5.71-12.5,8.71-.59.43-1,.71-1.22.88-.4.36-.8.71-1.17,1-1.85,1.5-3.68,3-5.49,4.58-2.18,1.88-4.34,3.78-6.43,5.76-.7.66-3.18,4-4.36,4.79-.11.19-.22.38-.34.57a3.57,3.57,0,0,1-.41,1.51c.15.4.34.92.48,1.38.43.76.84,1.55,1.29,2.3.12.21.25.4.38.6,1.27,1-2.33,9-.87,9.8,4,2.16,6.92,2.43,11.17,3a7.11,7.11,0,0,1,.74.71,24.58,24.58,0,0,1,10.16,16.89,27.42,27.42,0,0,1,17.39,11.53c3.22,5,3.92,12.48,2.37,18.11-1.7,6.17-5.5,10-10.39,13.73-.22.2-.52.45-.91.78-1.16,1-2.31,2-3.43,3q-3.45,3.21-6.62,6.7-1.62,1.77-3.16,3.62l-.78.95c-1.73,2.45-3.46,4.88-5,7.44a105,105,0,0,0-5.13,9.22c-.66,1.34-1.76,2.94-2,4.39.38-.89.76-1.77,1.15-2.66-.39,1-.76,2-1.11,3a78.58,78.58,0,0,0-2.61,9,32.9,32.9,0,0,1-.71,4.28c0,.28-.07.55-.09.82.29,6.61-2,13.61-6.52,18.17,13.11,8.41,105.17,78.55,110.15,80.57,90.6-14,143.26-95,143.26-166.52A169.75,169.75,0,0,0,414.62,227.43Z" transform="translate(-79.36 -81.61)"/><path class="cls-3" d="M363.13,283.7l-10.9,36.81c-5.81,17.26-10.07,16-21.17,16.15H169.51c-11.09-.19-15.35,1.11-21.17-16.15L137.45,283.7c-4.8-16.79,40.66-79.78,61.22-102.89h20.65V167.33a4,4,0,0,1,4-4h9.09a4,4,0,0,1,4,4v13.48h27.77V167.33a4,4,0,0,1,4-4h9.09a4,4,0,0,1,4,4v13.48H301.9C322.47,203.92,367.92,266.91,363.13,283.7Z" transform="translate(-79.36 -81.61)"/><path class="cls-3" d="M371.67,205.68H326.59a4.83,4.83,0,0,1-4.68-4c-3.75-20.23-34.71-43.34-72.48-43.65-37.77.31-68.74,23.42-72.48,43.65a4.83,4.83,0,0,1-4.68,4H127.18a4.94,4.94,0,0,1-4.58-6.07c3.54-17.22,14.19-36.91,44.48-50.51,33-14.82,131.67-14.82,164.7,0,30.28,13.6,40.94,33.29,44.48,50.51A4.94,4.94,0,0,1,371.67,205.68Z" transform="translate(-79.36 -81.61)"/><rect class="cls-1" x="132.89" y="124.06" width="20.73" height="20.73" rx="4.55" ry="4.55"/><rect class="cls-1" x="158.02" y="124.06" width="20.73" height="20.73" rx="4.55" ry="4.55"/><rect class="cls-1" x="183.15" y="124.06" width="20.73" height="20.73" rx="4.55" ry="4.55"/><rect class="cls-1" x="132.89" y="149.51" width="20.73" height="20.73" rx="4.55" ry="4.55"/><rect class="cls-1" x="158.02" y="149.51" width="20.73" height="20.73" rx="4.55" ry="4.55"/><rect class="cls-1" x="183.15" y="149.51" width="20.73" height="20.73" rx="4.55" ry="4.55"/><rect class="cls-1" x="132.89" y="174.95" width="20.73" height="20.73" rx="4.55" ry="4.55"/><rect class="cls-1" x="158.02" y="174.95" width="20.73" height="20.73" rx="4.55" ry="4.55"/><rect class="cls-1" x="183.15" y="174.95" width="20.73" height="20.73" rx="4.55" ry="4.55"/></svg>